<svg width="36" height="36" viewBox="0 0 36 36" fill="none" xmlns="http://www.w3.org/2000/svg">
<rect x="13.9445" y="11" width="15.1667" height="2.16667" rx="1.08333" fill="#114C5F"/>
<rect x="7.44446" y="16.4167" width="21.6667" height="2.16667" rx="1.08333" fill="#114C5F"/>
<rect x="7.44446" y="21.8333" width="21.6667" height="2.16667" rx="1.08333" fill="#114C5F"/>
<path d="M2 2V0H0V2H2ZM34 2H36V0H34V2ZM34 34V36H36V34H34ZM2 34H0V36H2V34ZM2 4H34V0H2V4ZM32 2V34H36V2H32ZM34 32H2V36H34V32ZM4 34V2H0V34H4Z" fill="#114C5F"/>
</svg>
