<svg width="188" height="214" viewBox="0 0 188 214" fill="none" xmlns="http://www.w3.org/2000/svg">
<path d="M14.2895 214C13.8926 213.818 13.0987 213.545 11.908 213.18C10.7172 212.816 9.42713 212.633 8.03787 212.633C5.65628 212.087 3.67162 210.903 2.08389 209.08C0.69463 207.258 0 205.163 0 202.794C0 201.519 0.0992326 200.517 0.297699 199.788C0.893096 199.241 1.38926 197.784 1.78619 195.415C2.38159 193.229 2.67929 191.224 2.67929 189.402C3.27469 188.309 3.77085 187.216 4.16778 186.123C4.56472 184.847 5.06088 183.116 5.65628 180.93C7.24401 172.913 10.9156 159.43 16.6711 140.48C22.4266 121.531 25.999 111.418 27.3883 110.143V107.137C27.3883 106.59 27.5868 105.497 27.9837 103.857C28.3806 102.217 29.2737 100.486 30.663 98.6641C31.4568 96.4777 32.0522 94.3823 32.4492 92.378C33.0446 90.1916 33.4415 88.5517 33.64 87.4585C34.4338 86.5475 35.7239 83.8144 37.51 79.2593C39.4947 74.7041 40.7847 71.6978 41.3801 70.2401C42.7694 66.7782 44.4564 62.7697 46.441 58.2146C48.6241 53.4772 50.1126 50.3797 50.9065 48.9221V47.5556C51.3034 47.1912 52.2958 45.3691 53.8835 42.0894C55.6697 38.6275 57.1582 35.7122 58.349 33.3436C59.7382 30.4283 63.4099 22.8668 69.3638 10.659C69.9592 9.38357 70.8523 7.83483 72.0431 6.01278C73.4324 4.00852 74.127 2.64198 74.127 1.91316C74.9209 0.637719 76.3101 0 78.2948 0C80.081 0 81.8672 0.637719 83.6534 1.91316C85.638 3.00639 87.1265 4.46403 88.1189 6.28608L91.0958 10.659L80.3787 30.3372C77.4017 35.0745 74.8216 39.6296 72.6385 44.0026C70.4554 48.3755 69.3638 50.9263 69.3638 51.6552C68.57 53.4772 66.9822 57.2124 64.6007 62.8608C62.4175 68.5092 60.6313 73.3376 59.2421 77.3461C58.2497 80.0792 57.059 82.9945 55.6697 86.092C54.2804 89.0072 53.2881 91.1026 52.6927 92.378C51.105 95.6577 50.3111 97.4798 50.3111 97.8442C50.3111 97.1154 62.2191 96.751 86.035 96.751C89.8058 96.751 96.4544 96.6599 105.981 96.4777C115.706 96.2954 121.759 96.0221 124.14 95.6577L139.621 94.2912L149.743 66.1405C151.727 59.7633 156.093 47.3734 162.841 28.9706C165.818 21.1358 168.2 16.1252 169.986 13.9387C171.772 11.57 173.955 10.3857 176.535 10.3857C177.528 10.3857 178.917 10.8412 180.703 11.7522C182.688 12.4811 183.978 13.4832 184.573 14.7586C186.756 16.7629 187.848 18.8582 187.848 21.0447C187.848 23.5956 186.26 27.1486 183.085 31.7037C180.703 35.53 177.329 42.7271 172.963 53.295C171.177 58.2146 170.085 61.0387 169.688 61.7676C169.688 65.5939 168.696 68.4181 166.711 70.2401C165.917 70.9689 164.528 73.6109 162.544 78.166C160.559 82.539 159.567 85.0898 159.567 85.8187C159.567 87.2763 159.269 88.9161 158.673 90.7382C158.078 92.378 157.383 93.5624 156.59 94.2912L154.506 100.851C147.559 123.991 142.102 140.025 138.132 148.953C138.132 149.864 137.636 151.504 136.644 153.872C135.651 156.241 135.155 157.881 135.155 158.792C134.758 160.067 133.865 162.618 132.476 166.444C131.087 170.271 130.392 172.548 130.392 173.277C129.995 175.281 129.201 178.47 128.011 182.843C125.034 195.233 123.545 201.974 123.545 203.068C123.148 203.432 122.553 203.614 121.759 203.614C120.965 203.614 119.675 203.341 117.889 202.794C116.301 202.248 115.11 201.792 114.316 201.428C109.553 199.059 107.172 196.326 107.172 193.229C107.172 191.224 108.065 188.582 109.851 185.303C110.446 184.392 112.332 178.47 115.507 167.538L118.186 157.425C119.377 154.51 122.057 145.855 126.224 131.461C129.598 120.347 131.484 114.607 131.881 114.243V111.51C131.285 110.599 124.041 110.143 110.149 110.143C94.4698 110.143 80.081 110.872 66.9822 112.33H52.9904H45.2502C44.2579 114.334 41.1817 122.806 36.0216 137.747C31.0599 152.506 28.2814 161.798 27.686 165.625C26.2967 171.637 24.1136 180.019 21.1366 190.769C18.1596 201.337 15.8773 209.08 14.2895 214Z" fill="black"/>
</svg>
