<svg width="60" height="68" viewBox="0 0 60 68" fill="none" xmlns="http://www.w3.org/2000/svg">
<path d="M4.5406 68C4.41448 67.9421 4.16222 67.8553 3.78384 67.7395C3.40545 67.6237 2.99554 67.5658 2.55409 67.5658C1.79732 67.3921 1.16668 67.0158 0.662171 66.4368C0.220723 65.8578 0 65.192 0 64.4393C0 64.0341 0.0315319 63.7156 0.0945959 63.484C0.283788 63.3104 0.441447 62.8472 0.567576 62.0945C0.756767 61.3998 0.851363 60.7629 0.851363 60.1839C1.04055 59.8365 1.19821 59.4891 1.32434 59.1418C1.45047 58.7365 1.60813 58.1865 1.79732 57.4917C2.30183 54.9442 3.46852 50.6599 5.29737 44.6386C7.12622 38.6173 8.26138 35.404 8.70282 34.9987V34.0434C8.70282 33.8697 8.76589 33.5224 8.89201 33.0013C9.01814 32.4802 9.30193 31.9302 9.74338 31.3512C9.99563 30.6565 10.1848 29.9906 10.311 29.3538C10.5001 28.659 10.6263 28.1379 10.6893 27.7906C10.9416 27.5011 11.3515 26.6326 11.9191 25.1852C12.5497 23.7378 12.9596 22.7825 13.1488 22.3193C13.5903 21.2192 14.1263 19.9455 14.757 18.4981C15.4507 16.9928 15.9236 16.0085 16.1759 15.5453V15.1111C16.302 14.9953 16.6173 14.4164 17.1219 13.3742C17.6894 12.2742 18.1624 11.3478 18.5408 10.5952C18.9822 9.6688 20.1489 7.26607 22.0408 3.38698C22.23 2.9817 22.5138 2.48957 22.8922 1.9106C23.3337 1.27374 23.5544 0.839509 23.5544 0.60792C23.8066 0.20264 24.2481 0 24.8787 0C25.4463 0 26.0139 0.20264 26.5814 0.60792C27.2121 0.955301 27.6851 1.41848 28.0004 1.99745L28.9463 3.38698L25.5409 9.63985C24.5949 11.1452 23.7751 12.5926 23.0814 13.9821C22.3877 15.3716 22.0408 16.1822 22.0408 16.4138C21.7886 16.9928 21.2841 18.1797 20.5273 19.9745C19.8336 21.7693 19.266 23.3035 18.8246 24.5773C18.5093 25.4457 18.1309 26.3721 17.6894 27.3563C17.248 28.2827 16.9327 28.9485 16.7435 29.3538C16.239 30.3959 15.9867 30.9749 15.9867 31.0907C15.9867 30.8591 19.7705 30.7433 27.3382 30.7433C28.5364 30.7433 30.6491 30.7143 33.6761 30.6565C36.7663 30.5986 38.6897 30.5117 39.4465 30.3959L44.3655 29.9617L47.5817 21.0166C48.2124 18.9902 49.5998 15.0532 51.744 9.20562C52.6899 6.71605 53.4467 5.12388 54.0143 4.42912C54.5818 3.67646 55.2755 3.30013 56.0954 3.30013C56.4107 3.30013 56.8521 3.44487 57.4197 3.73436C58.0504 3.96594 58.4603 4.28438 58.6495 4.68966C59.3432 5.32652 59.69 5.99234 59.69 6.6871C59.69 7.49766 59.1855 8.62665 58.1765 10.0741C57.4197 11.2899 56.3476 13.5768 54.9602 16.9349C54.3926 18.4981 54.0458 19.3955 53.9197 19.6271C53.9197 20.8429 53.6043 21.7403 52.9737 22.3193C52.7214 22.5509 52.28 23.3904 51.6494 24.8378C51.0187 26.2273 50.7034 27.0379 50.7034 27.2695C50.7034 27.7327 50.6088 28.2537 50.4196 28.8327C50.2304 29.3538 50.0097 29.7301 49.7574 29.9617L49.0953 32.046C46.888 39.3989 45.1538 44.4938 43.8925 47.3308C43.8925 47.6203 43.7348 48.1413 43.4195 48.894C43.1042 49.6467 42.9465 50.1677 42.9465 50.4572C42.8204 50.8625 42.5366 51.6731 42.0952 52.8889C41.6537 54.1047 41.433 54.8284 41.433 55.06C41.3069 55.6969 41.0546 56.7101 40.6762 58.0996C39.7303 62.0366 39.2573 64.1788 39.2573 64.5262C39.1312 64.642 38.942 64.6999 38.6897 64.6999C38.4375 64.6999 38.0275 64.613 37.46 64.4393C36.9555 64.2657 36.5771 64.1209 36.3248 64.0051C34.8113 63.2525 34.0545 62.384 34.0545 61.3997C34.0545 60.7629 34.3383 59.9234 34.9059 58.8812C35.0951 58.5918 35.6942 56.7101 36.7032 53.2363L37.5546 50.023C37.933 49.0966 38.7843 46.3465 40.1087 41.7727C41.1807 38.241 41.7799 36.4172 41.906 36.3014V35.433C41.7168 35.1435 39.415 34.9987 35.0005 34.9987C30.0184 34.9987 25.4463 35.2303 21.2841 35.6935H16.8381H14.3786C14.0633 36.3304 13.0858 39.0226 11.4461 43.7701C9.86951 48.4598 8.98661 51.4125 8.79742 52.6284C8.35597 54.539 7.66227 57.2022 6.71631 60.6181C5.77035 63.9762 5.04511 66.4368 4.5406 68Z" fill="black"/>
</svg>
